<svg width="24" height="24" viewBox="0 0 24 24" fill="none" xmlns="http://www.w3.org/2000/svg">
<path fill-rule="evenodd" clip-rule="evenodd" d="M5.01009 1.52753C5.92047 1.1836 7.05057 1 8.552 1H15.448C16.9496 1 18.0797 1.18389 18.99 1.52796C19.9164 1.87808 20.553 2.37084 21.0884 2.88737C21.0967 2.89539 21.1048 2.90356 21.1129 2.91186C21.6305 3.44711 22.1232 4.08354 22.473 5.01001C22.8167 5.92019 23 7.05027 23 8.552V15.45C23 16.9522 22.8167 18.0821 22.473 18.992C22.1231 19.9183 21.6302 20.5541 21.1129 21.0891C21.105 21.0973 21.0969 21.1053 21.0888 21.1132C20.5534 21.6304 19.9167 22.1235 18.9902 22.4739C18.0798 22.8181 16.9496 23.002 15.448 23.002H8.552C7.05058 23.002 5.92042 22.8184 5.00996 22.4743C4.08332 22.1241 3.44648 21.6308 2.91085 21.1129C2.90281 21.1051 2.8949 21.0972 2.88713 21.0891C2.36968 20.554 1.87687 19.9179 1.52701 18.9916C1.1833 18.0816 1 16.9517 1 15.45V8.552C1 7.05026 1.1833 5.92041 1.52699 5.01033C1.87681 4.08401 2.36952 3.4477 2.88676 2.91224C2.89478 2.90394 2.90294 2.89578 2.91124 2.88776C3.4468 2.37043 4.08357 1.87756 5.01009 1.52753ZM4.31323 4.31423C3.92811 4.71478 3.62187 5.12414 3.39801 5.71692C3.1657 6.33209 3 7.20474 3 8.552V15.45C3 16.7973 3.1657 17.6699 3.39799 18.2849C3.62188 18.8777 3.92815 19.2868 4.31323 19.6868C4.71374 20.0723 5.12364 20.3792 5.71704 20.6035C6.33258 20.8361 7.20542 21.002 8.552 21.002H15.448C16.7944 21.002 17.6672 20.8359 18.2828 20.6031C18.8763 20.3787 19.2863 20.0719 19.687 19.6866C20.0721 19.2865 20.3782 18.8777 20.602 18.2852C20.8343 17.6704 21 16.7978 21 15.45V8.552C21 7.20473 20.8343 6.33181 20.602 5.71649C20.3781 5.12362 20.0719 4.71438 19.6872 4.31461C19.2865 3.92978 18.8764 3.62309 18.283 3.39879C17.6673 3.16611 16.7944 3 15.448 3H8.552C7.20543 3 6.33253 3.1659 5.71691 3.39847C5.12359 3.62262 4.71369 3.9292 4.31323 4.31423Z" fill="black"/>
<path fill-rule="evenodd" clip-rule="evenodd" d="M5.545 12.001C5.545 11.4487 5.99272 11.001 6.545 11.001H17.455C18.0073 11.001 18.455 11.4487 18.455 12.001C18.455 12.5533 18.0073 13.001 17.455 13.001H6.545C5.99272 13.001 5.545 12.5533 5.545 12.001Z" fill="black"/>
<path fill-rule="evenodd" clip-rule="evenodd" d="M12.003 5.545C12.5553 5.545 13.003 5.99272 13.003 6.545V17.455C13.003 18.0073 12.5553 18.455 12.003 18.455C11.4507 18.455 11.003 18.0073 11.003 17.455V6.545C11.003 5.99272 11.4507 5.545 12.003 5.545Z" fill="black"/>
</svg>
