<svg width="24" height="24" viewBox="0 0 24 24" fill="none" xmlns="http://www.w3.org/2000/svg">
<g clip-path="url(#clip0_301_1169)">
<path fill-rule="evenodd" clip-rule="evenodd" d="M17.1273 6.87801C17.4077 7.1585 17.4957 7.57812 17.3519 7.94765L14.8729 14.3157C14.7712 14.5769 14.5645 14.7835 14.3032 14.885L7.94316 17.356C7.57353 17.4996 7.15397 17.4112 6.87366 17.1308C6.59336 16.8503 6.50527 16.4306 6.64913 16.0611L9.12813 9.69311C9.22983 9.43186 9.43653 9.22529 9.69786 9.12376L16.0579 6.65276C16.4275 6.50916 16.847 6.59752 17.1273 6.87801ZM10.8323 10.8287L9.3374 14.6687L13.1687 13.1801L14.6636 9.3401L10.8323 10.8287Z" fill="black"/>
<path fill-rule="evenodd" clip-rule="evenodd" d="M10.06 10.0559L13.949 13.9449L7.58101 16.4239L10.06 10.0559Z" fill="black"/>
<path fill-rule="evenodd" clip-rule="evenodd" d="M12.001 2.50488C6.7543 2.50488 2.50101 6.75818 2.50101 12.0049C2.50101 17.2516 6.7543 21.5049 12.001 21.5049C17.2477 21.5049 21.501 17.2516 21.501 12.0049C21.501 6.75818 17.2477 2.50488 12.001 2.50488ZM0.501007 12.0049C0.501007 5.65361 5.64973 0.504883 12.001 0.504883C18.3523 0.504883 23.501 5.65361 23.501 12.0049C23.501 18.3562 18.3523 23.5049 12.001 23.5049C5.64973 23.5049 0.501007 18.3562 0.501007 12.0049Z" fill="black"/>
</g>
<defs>
<clipPath id="clip0_301_1169">
<rect width="24" height="24" fill="white"/>
</clipPath>
</defs>
</svg>
