<svg width="103" height="29" viewBox="0 0 103 29" fill="none" xmlns="http://www.w3.org/2000/svg">
<g clip-path="url(#clip0_301_1179)">
<path fill-rule="evenodd" clip-rule="evenodd" d="M5.57125 0.0995833C3.46875 0.978646 1.16688 3.45271 0.441875 6.56115C-0.4825 10.4943 3.35094 12.1527 3.66813 11.609C4.03063 10.9746 2.97938 10.7571 2.76188 8.70896C2.49 6.08083 3.71344 3.12646 5.25406 1.83958C5.54406 1.5949 5.52594 1.93021 5.52594 2.54646L5.47156 15.6508C5.47156 18.4602 5.35375 19.3393 5.14531 20.2183C4.93687 21.1065 4.60156 21.7046 4.84625 21.9402C5.13625 22.194 6.36875 21.5777 7.07563 20.5808C7.88329 19.3489 8.30313 17.9031 8.28094 16.4302C8.34438 14.5633 8.33531 11.5999 8.34438 9.91427C8.34438 8.37364 8.37156 3.83333 8.31719 1.10552C8.29906 0.434895 6.44125 -0.262917 5.57125 0.108646V0.0995833ZM80.0016 13.2221C79.9726 14.3977 79.7011 15.5547 79.2041 16.6205C78.4338 18.1793 76.8206 18.6596 76.1319 16.4211C75.7694 15.2068 75.7422 13.1677 76.0141 11.464C76.2859 9.74208 77.0472 8.42802 78.3069 8.54583C79.5575 8.66365 80.1375 10.2677 80.0016 13.2221ZM59.0219 22.2665C59.0038 24.6861 58.6231 26.8068 57.8075 27.4321C56.6384 28.3021 55.0887 27.6405 55.4059 25.8733C55.6869 24.3146 57.0372 22.7196 59.0309 20.7621L59.0219 22.2665ZM58.7047 13.204C58.6517 14.3822 58.3813 15.5405 57.9072 16.6205C57.1369 18.1793 55.5147 18.6596 54.835 16.4211C54.3819 14.8896 54.4906 12.914 54.7172 11.6633C55.0163 10.0502 55.7322 8.54583 57.01 8.54583C58.2606 8.54583 58.8769 9.90521 58.7047 13.204ZM46.5519 13.1858C46.5289 14.3758 46.2605 15.5482 45.7634 16.6296C44.9659 18.1702 43.38 18.6596 42.6822 16.4211C42.1837 14.8171 42.3559 12.6149 42.5644 11.4368C42.8725 9.66958 43.6519 8.42802 44.8572 8.53677C46.1078 8.66365 46.7059 10.2586 46.5519 13.1858ZM102.241 14.8261C101.942 14.8261 101.797 15.1433 101.688 15.669C101.289 17.4996 100.873 17.9165 100.329 17.9165C99.7306 17.9165 99.1869 17.0102 99.0419 15.1977C98.9331 13.7658 98.9513 11.1377 99.0963 8.51865C99.1234 7.98396 98.9694 7.45833 97.5284 6.93271C96.9122 6.70615 96.0059 6.37083 95.5619 7.45833C94.6645 9.52755 94.0312 11.7015 93.6769 13.929C93.6769 13.9833 93.6044 13.9924 93.5863 13.8746C93.5228 13.0861 93.3506 11.6452 93.3325 8.6274C93.3325 8.03833 93.2056 7.5399 92.5531 7.13208C92.1272 6.86021 90.8494 6.39802 90.3781 6.95083C89.9884 7.40396 89.5262 8.64552 89.0459 10.1046L88.3753 12.0983L88.3844 7.67583C88.3844 7.22271 88.0762 7.06865 87.9766 7.04146C87.4449 6.87746 86.8986 6.76516 86.3453 6.70615C85.9103 6.70615 85.8016 6.95083 85.8016 7.31333C85.8016 7.35865 85.7291 11.5274 85.7291 14.4455V14.8624C85.4844 16.2036 84.6959 18.0252 83.835 18.0252C82.9741 18.0252 82.5662 17.264 82.5662 13.784C82.5662 11.754 82.6297 10.8749 82.6569 9.40677C82.675 8.5549 82.7113 7.91146 82.7113 7.76646C82.7022 7.31333 81.9228 7.08677 81.5603 6.99615C81.1978 6.91458 80.8716 6.87833 80.6269 6.89646C80.2644 6.91458 80.0197 7.14115 80.0197 7.45833V7.95677C79.6286 7.33816 79.0463 6.86406 78.3613 6.60646C77.0563 6.21677 75.6969 6.56115 74.6728 7.99302C73.7889 9.25746 73.2686 10.7401 73.1684 12.2796C73.0234 13.639 73.0778 15.0074 73.3225 16.1765C73.0234 17.4815 72.4525 18.0252 71.8363 18.0252C70.9391 18.0252 70.2956 16.5571 70.3681 14.0377C70.4225 12.3702 70.7487 11.2011 71.1113 9.51552C71.2653 8.79052 71.1475 8.42802 70.8303 8.06552C70.5403 7.73021 69.9241 7.55802 69.0269 7.76646C68.3925 7.91146 67.4863 8.07458 66.6706 8.1924C66.6706 8.1924 66.7159 8.00208 66.7612 7.64865C66.9697 5.80896 64.9669 5.95396 64.3234 6.54302C63.9428 6.89646 63.6891 7.30427 63.5803 8.05646C63.4263 9.23458 64.3959 9.7874 64.3959 9.7874C63.7732 12.1397 62.7292 14.3596 61.3147 16.3396V15.7052C61.3056 12.6602 61.3419 10.2677 61.36 9.40677C61.3781 8.5549 61.4144 7.92958 61.4144 7.77552C61.4144 7.44927 61.215 7.3224 60.8162 7.16833C60.4538 7.02333 60.0369 6.93271 59.6019 6.89646C59.0581 6.85115 58.7228 7.14115 58.7319 7.48552V7.95677C58.3389 7.33618 57.7531 6.86177 57.0644 6.60646C55.7594 6.21677 54.4 6.56115 53.3759 7.99302C52.5237 9.27011 52.0063 10.7411 51.8716 12.2705C51.7356 13.6933 51.7537 14.8986 51.9531 15.9318C51.7447 16.9558 51.1466 18.0161 50.4759 18.0161C49.615 18.0161 49.1166 17.264 49.1166 13.784C49.1166 11.754 49.18 10.8749 49.2072 9.40677C49.2253 8.5549 49.2616 7.91146 49.2616 7.76646C49.2616 7.31333 48.4731 7.08677 48.1106 6.99615C47.73 6.90552 47.3947 6.87833 47.15 6.90552C46.8147 6.92365 46.5791 7.22271 46.5791 7.44927V7.95677C46.1861 7.33618 45.6003 6.86177 44.9116 6.60646C43.6066 6.21677 42.2563 6.57021 41.2231 7.99302C40.5434 8.92646 39.9997 9.95958 39.7188 12.2524C39.6426 12.8657 39.6063 13.4832 39.61 14.1011C39.3381 15.7415 38.1509 17.6355 37.1812 17.6355C36.6103 17.6355 36.0666 16.539 36.0666 14.1918C36.0666 11.0652 36.2659 6.61552 36.2931 6.18958L37.7612 6.1624C38.3775 6.1624 38.9303 6.17146 39.7459 6.12615C40.1538 6.10802 40.5434 4.6399 40.1266 4.45865C39.9362 4.37708 38.5859 4.30458 38.0422 4.29552C37.5891 4.28646 36.3384 4.19583 36.3384 4.19583C36.3384 4.19583 36.4562 1.24146 36.4834 0.933333C36.5016 0.661458 36.1663 0.534583 35.9669 0.453021C35.5196 0.27298 35.0549 0.139363 34.5803 0.0542706C33.8916 -0.0816669 33.5834 0.0542705 33.52 0.63427C33.4294 1.51333 33.3841 4.09615 33.3841 4.09615C32.8766 4.09615 31.1456 3.99646 30.6472 3.99646C30.1759 3.99646 29.6684 6.00833 30.3209 6.03552L33.2209 6.11708L33.1938 12.0349V12.4608C32.7134 14.9349 31.0459 16.2671 31.0459 16.2671C31.4084 14.6358 30.6653 13.4124 29.3512 12.3702C28.8619 11.9896 27.9013 11.2646 26.8228 10.4671C26.8228 10.4671 27.4481 9.85083 28.0009 8.61833C28.3906 7.74833 28.4088 6.75146 27.4481 6.53396C25.8622 6.1624 24.5481 7.3224 24.1584 8.57302C24.0064 8.97786 23.9682 9.41665 24.0481 9.84166C24.128 10.2667 24.3229 10.6617 24.6116 10.9836L24.7475 11.1558C24.385 11.8446 23.8956 12.769 23.4788 13.494C22.3278 15.4877 21.4488 17.0736 20.7872 17.0736C20.2616 17.0736 20.2706 15.4696 20.2706 13.9652C20.2706 12.6693 20.3612 10.7208 20.4428 8.70896C20.47 8.03833 20.1347 7.65771 19.5728 7.31333C19.126 7.00426 18.6199 6.79133 18.0866 6.68802C17.4522 6.68802 15.6397 6.77865 13.9178 11.7358C13.7094 12.3611 13.2834 13.494 13.2834 13.494L13.3197 7.5399C13.3197 7.3949 13.2472 7.26802 13.075 7.1774C12.5342 6.88989 11.9375 6.72293 11.3259 6.68802C10.9997 6.68802 10.8366 6.84208 10.8366 7.14115L10.7731 16.4755C10.7731 17.1824 10.7913 18.0071 10.8638 18.3696C10.9363 18.7321 11.045 19.0221 11.19 19.1943C11.3259 19.3755 11.4891 19.5024 11.7519 19.5568C12.0056 19.6111 13.365 19.7833 13.4375 19.2668C13.5281 18.6415 13.5281 17.9708 14.2441 15.4605C15.3497 11.5546 16.7997 9.6424 17.4884 8.97177C17.6063 8.8449 17.7422 8.8449 17.7331 9.03521L17.5338 13.8565C17.3525 18.723 18.2406 19.6202 19.5003 19.6202C20.47 19.6202 21.8384 18.6596 23.3066 16.2308L25.7534 12.1527L27.1853 13.4758C28.3453 14.5633 28.7259 15.6146 28.4722 16.6024C28.2819 17.3546 27.5478 18.143 26.2609 17.3818C25.8803 17.1552 25.7172 16.983 25.3456 16.7383C25.1372 16.6024 24.8291 16.5571 24.6388 16.7021C24.1584 17.0646 23.8775 17.5358 23.7234 18.1068C23.5694 18.6596 24.1313 18.9586 24.7113 19.2124C25.2097 19.439 26.2881 19.6383 26.9769 19.6655C29.6412 19.7561 31.78 18.3786 33.2662 14.8261C33.5381 17.8893 34.6709 19.6293 36.6375 19.6293C37.9516 19.6293 39.2747 17.9255 39.8547 16.258C40.0178 16.9377 40.2625 17.5268 40.5797 18.0343C42.1022 20.4358 45.0475 19.9102 46.5247 17.8711C46.9778 17.2458 47.0503 17.0193 47.0503 17.0193C47.0945 17.7054 47.3913 18.3509 47.8833 18.8311C48.3753 19.3114 49.0277 19.5925 49.7147 19.6202C50.7116 19.6202 51.7356 19.149 52.4606 17.5268C52.5422 17.708 52.6419 17.8711 52.7325 18.0343C54.255 20.4358 57.2003 19.9102 58.6775 17.8711L58.8588 17.6174L58.9041 18.8861L57.5447 20.1277C55.2609 22.2121 53.5209 23.798 53.3941 25.6468C53.2309 28.003 55.1431 28.873 56.5931 28.9908C57.3184 29.0269 58.0401 28.8687 58.6838 28.5326C59.3274 28.1964 59.8696 27.6945 60.2544 27.0786C60.9613 26.0365 61.4325 23.789 61.3962 21.5686L61.3419 18.3424C63.5127 15.8321 65.1803 12.9277 66.2537 9.7874C66.2537 9.7874 67.0966 9.79646 67.9938 9.74208C68.2837 9.72396 68.3653 9.77833 68.3109 9.98677C68.2475 10.2405 67.1781 14.373 68.1569 17.128C68.8275 19.013 70.3319 19.6202 71.2381 19.6202C72.2803 19.6202 73.2862 18.8318 73.8209 17.6536L74.0294 18.0343C75.5519 20.4358 78.4881 19.9102 79.9744 17.8711C80.3097 17.418 80.5 17.0193 80.5 17.0193C80.8262 19.013 82.3759 19.6293 83.2641 19.6293C84.1884 19.6293 85.0766 19.2486 85.7834 17.563C85.8106 18.3061 85.8559 18.9133 85.9284 19.1036C85.9737 19.2215 86.2366 19.3755 86.4359 19.439C87.2788 19.7471 88.1397 19.6021 88.4659 19.5386C88.6834 19.4933 88.8556 19.3121 88.8828 18.859C88.9463 17.6536 88.91 15.6327 89.2725 14.1374C89.8797 11.609 90.4506 10.6302 90.7225 10.1499C90.8766 9.87802 91.0487 9.83271 91.0578 10.1227C91.0669 10.7027 91.0941 12.4065 91.3297 14.6993C91.5109 16.3849 91.7466 17.3818 91.9188 17.6899C92.4353 18.5961 93.0697 18.6415 93.5772 18.6415C93.9034 18.6415 94.5922 18.5508 94.5287 17.9799C94.5016 17.699 94.5469 15.968 95.1631 13.4849C95.5528 11.8627 96.2053 10.4036 96.4409 9.8599C96.5316 9.66958 96.5769 9.82365 96.5769 9.8599C96.5225 10.9655 96.4137 14.6177 96.8669 16.6205C97.4831 19.3211 99.2684 19.6293 99.8937 19.6293C101.226 19.6293 102.313 18.6143 102.676 15.959C102.767 15.3246 102.631 14.8261 102.241 14.8261Z" fill="black"/>
</g>
<defs>
<clipPath id="clip0_301_1179">
<rect width="103" height="29" fill="white"/>
</clipPath>
</defs>
</svg>
