<svg width="24" height="24" viewBox="0 0 24 24" fill="none" xmlns="http://www.w3.org/2000/svg">
<path fill-rule="evenodd" clip-rule="evenodd" d="M11.9715 2.87003C10.7881 2.82706 9.60921 3.02389 8.50376 3.44876C7.39838 3.87361 6.39037 4.51766 5.54035 5.34217C4.69034 6.16669 4.01589 7.15463 3.55758 8.24655C3.09927 9.33848 2.86658 10.5118 2.87349 11.696L2.87354 11.7041L2.87344 11.7123C2.85769 12.939 3.10399 14.1551 3.59587 15.279C4.08745 16.4023 4.81298 17.4078 5.72402 18.2283C5.89102 18.3773 6.02649 18.5582 6.12243 18.7604C6.21886 18.9636 6.27339 19.1841 6.28276 19.4089L6.28317 19.4187L6.334 21.0961L8.22332 20.2619C8.57393 20.1068 8.96726 20.0773 9.33708 20.1783C10.205 20.4153 11.1009 20.5341 12.0006 20.5316L12.0158 20.5316L12.0309 20.532C13.2145 20.5701 14.3936 20.3698 15.4982 19.9431C16.6028 19.5164 17.6104 18.872 18.4611 18.0482C19.3117 17.2244 19.9881 16.2381 20.45 15.1477C20.912 14.0573 21.15 12.8853 21.15 11.7011C21.15 10.5169 20.912 9.34485 20.45 8.2545C19.9881 7.16415 19.3117 6.17777 18.4611 5.35399C17.6104 4.5302 16.6028 3.88582 15.4982 3.45913C14.3936 3.03244 13.2145 2.83215 12.0309 2.87015L12.0012 2.87111L11.9715 2.87003ZM12.0048 1.13113C10.5969 1.084 9.19485 1.32012 7.87988 1.82553C6.55558 2.33451 5.34792 3.10612 4.32956 4.09394C3.3112 5.08175 2.50317 6.26535 1.9541 7.57353C1.40607 8.87923 1.1273 10.2821 1.13448 11.6981C1.11675 13.1696 1.41273 14.628 2.00275 15.9762C2.59093 17.3202 3.45784 18.5239 4.54601 19.5077L4.59894 21.2525C4.60756 21.5257 4.68307 21.7926 4.81884 22.0298C4.95462 22.2669 5.14652 22.4672 5.37771 22.613C5.6089 22.7587 5.87233 22.8455 6.14488 22.8658C6.41743 22.886 6.69079 22.8391 6.94098 22.7291L8.90348 21.8626C9.90973 22.135 10.9478 22.2722 11.9903 22.2706C13.4017 22.3139 14.8075 22.0741 16.1248 21.5653C17.4469 21.0546 18.6527 20.2834 19.6708 19.2974C20.6889 18.3115 21.4984 17.131 22.0513 15.8261C22.6041 14.5211 22.889 13.1183 22.889 11.7011C22.889 10.2839 22.6041 8.8811 22.0513 7.57614C21.4984 6.27119 20.6889 5.09067 19.6708 4.10475C18.6527 3.11883 17.4469 2.34762 16.1248 1.83695C14.812 1.32985 13.4113 1.08993 12.0048 1.13113Z" fill="black"/>
<path fill-rule="evenodd" clip-rule="evenodd" d="M17.79 10.1321C17.8735 10.001 17.908 9.84452 17.8874 9.69042C17.8667 9.53633 17.7922 9.3945 17.6771 9.29001C17.5619 9.18552 17.4136 9.12511 17.2582 9.11946C17.1028 9.1138 16.9504 9.16326 16.828 9.2591L14.272 11.3091C14.163 11.3916 14.0301 11.4365 13.8933 11.4369C13.7566 11.4372 13.6235 11.3931 13.514 11.3111L11.06 9.4701C10.8859 9.33976 10.6867 9.24686 10.475 9.19725C10.2632 9.14764 10.0435 9.1424 9.82961 9.18185C9.61573 9.2213 9.41233 9.30459 9.23221 9.42648C9.05209 9.54837 8.89915 9.70622 8.78301 9.8901L6.21601 13.8701C6.13173 14.0011 6.09659 14.1578 6.11683 14.3122C6.13707 14.4667 6.21138 14.609 6.32657 14.7139C6.44177 14.8188 6.59039 14.8795 6.74608 14.8852C6.90176 14.8909 7.05444 14.8413 7.17701 14.7451L9.73301 12.6961C9.84211 12.6133 9.97522 12.5683 10.1122 12.568C10.2491 12.5676 10.3825 12.6119 10.492 12.6941L12.944 14.5341C13.1181 14.6646 13.3174 14.7576 13.5293 14.8073C13.7411 14.857 13.961 14.8623 14.175 14.8229C14.389 14.7834 14.5925 14.7001 14.7727 14.5781C14.9529 14.4561 15.1059 14.2981 15.222 14.1141L17.79 10.1321Z" fill="black"/>
</svg>
