<svg width="24" height="24" viewBox="0 0 24 24" fill="none" xmlns="http://www.w3.org/2000/svg">
<path fill-rule="evenodd" clip-rule="evenodd" d="M21.95 8.002H2.049V6.002H21.95V8.002Z" fill="black"/>
<path fill-rule="evenodd" clip-rule="evenodd" d="M13.0078 1.13278C13.4873 0.858748 14.0982 1.02532 14.3722 1.50482L17.2302 6.50582C17.5043 6.98533 17.3377 7.59619 16.8582 7.87022C16.3787 8.14425 15.7678 7.97768 15.4938 7.49818L12.6358 2.49718C12.3617 2.01767 12.5283 1.40681 13.0078 1.13278Z" fill="black"/>
<path fill-rule="evenodd" clip-rule="evenodd" d="M6.71092 1.24172C7.19045 0.967746 7.8013 1.13438 8.07528 1.61392L10.8703 6.50592C11.1443 6.98545 10.9776 7.5963 10.4981 7.87028C10.0185 8.14425 9.4077 7.97762 9.13372 7.49808L6.33872 2.60608C6.06475 2.12655 6.23138 1.5157 6.71092 1.24172Z" fill="black"/>
<path fill-rule="evenodd" clip-rule="evenodd" d="M5.01009 1.52753C5.92047 1.1836 7.05057 1 8.552 1H15.448C16.9494 1 18.0795 1.1836 18.9899 1.52753C19.9164 1.87756 20.5532 2.37043 21.0888 2.88776C21.0969 2.89565 21.105 2.90369 21.1129 2.91186C21.6306 3.44724 22.1233 4.08393 22.4731 5.01044C22.8167 5.92068 23 7.05073 23 8.552V15.45C23 16.9517 22.8167 18.0818 22.473 18.992C22.1232 19.9185 21.6305 20.5549 21.1129 21.0901C21.105 21.0983 21.0969 21.1063 21.0888 21.1142C20.5532 21.6316 19.9164 22.1244 18.9899 22.4745C18.0795 22.8184 16.9494 23.002 15.448 23.002H8.552C7.05057 23.002 5.92047 22.8184 5.01009 22.4745C4.08357 22.1244 3.4468 21.6316 2.91124 21.1142C2.90307 21.1063 2.89503 21.0983 2.88713 21.0901C2.36954 20.5549 1.87678 19.9185 1.52697 18.992C1.1833 18.0818 1 16.9517 1 15.45V8.552C1 7.05073 1.18331 5.92068 1.52695 5.01044C1.87672 4.08393 2.36942 3.44724 2.88713 2.91186C2.89503 2.90369 2.90307 2.89565 2.91124 2.88776C3.4468 2.37043 4.08357 1.87756 5.01009 1.52753ZM4.31304 4.31441C3.9283 4.71413 3.62199 5.12364 3.39805 5.71681C3.16569 6.33232 3 7.20527 3 8.552V15.45C3 16.7973 3.1657 17.6702 3.39803 18.2855C3.62192 18.8785 3.92817 19.2878 4.31302 19.6876C4.71355 20.0727 5.12349 20.3793 5.71691 20.6035C6.33253 20.8361 7.20543 21.002 8.552 21.002H15.448C16.7946 21.002 17.6675 20.8361 18.2831 20.6035C18.8765 20.3794 19.2864 20.0727 19.687 19.6876C20.0718 19.2878 20.3781 18.8785 20.602 18.2855C20.8343 17.6702 21 16.7973 21 15.45V8.552C21 7.20527 20.8343 6.33232 20.6019 5.71681C20.378 5.12363 20.0717 4.71411 19.6869 4.31439C19.2864 3.92929 18.8765 3.62265 18.2831 3.39847C17.6675 3.1659 16.7946 3 15.448 3H8.552C7.20543 3 6.33253 3.1659 5.71691 3.39847C5.1235 3.62265 4.71356 3.9293 4.31304 4.31441Z" fill="black"/>
<path fill-rule="evenodd" clip-rule="evenodd" d="M9.763 17.664C9.62487 17.5843 9.51019 17.4695 9.43049 17.3314C9.35079 17.1932 9.30889 17.0365 9.309 16.877V11.63C9.30881 11.4703 9.3507 11.3134 9.43045 11.175C9.5102 11.0366 9.625 10.9217 9.76329 10.8418C9.90157 10.7619 10.0585 10.7199 10.2182 10.7199C10.3779 10.72 10.5347 10.7621 10.673 10.842L15.218 13.466C15.3563 13.5457 15.4712 13.6605 15.5511 13.7988C15.6309 13.937 15.673 14.0938 15.673 14.2535C15.673 14.4132 15.6309 14.57 15.5511 14.7082C15.4712 14.8465 15.3563 14.9613 15.218 15.041L10.673 17.665C10.5347 17.7449 10.3777 17.7869 10.218 17.7869C10.0583 17.7869 9.90134 17.7449 9.763 17.665V17.664Z" fill="black"/>
</svg>
