<svg width="24" height="24" viewBox="0 0 24 24" fill="none" xmlns="http://www.w3.org/2000/svg">
<path fill-rule="evenodd" clip-rule="evenodd" d="M10.5 3C9.01664 3 7.5666 3.43987 6.33323 4.26398C5.09986 5.08809 4.13857 6.25943 3.57091 7.62987C3.00325 9.00032 2.85473 10.5083 3.14411 11.9632C3.4335 13.418 4.14781 14.7544 5.1967 15.8033C6.2456 16.8522 7.58197 17.5665 9.03683 17.8559C10.4917 18.1453 11.9997 17.9968 13.3701 17.4291C14.7406 16.8614 15.9119 15.9001 16.736 14.6668C17.5601 13.4334 18 11.9834 18 10.5C18 8.51088 17.2098 6.60322 15.8033 5.1967C14.3968 3.79018 12.4891 3 10.5 3ZM5.22209 2.60104C6.78435 1.55717 8.62108 1 10.5 1C13.0196 1 15.4359 2.00089 17.2175 3.78249C18.9991 5.56408 20 7.98044 20 10.5C20 12.3789 19.4428 14.2157 18.399 15.7779C17.3551 17.3402 15.8714 18.5578 14.1355 19.2769C12.3996 19.9959 10.4895 20.184 8.64665 19.8175C6.80383 19.4509 5.11109 18.5461 3.78249 17.2175C2.45389 15.8889 1.5491 14.1962 1.18254 12.3534C0.815984 10.5105 1.00412 8.60041 1.72315 6.86451C2.44218 5.12861 3.65982 3.64491 5.22209 2.60104Z" fill="black"/>
<path fill-rule="evenodd" clip-rule="evenodd" d="M15.8039 15.8039C16.1944 15.4134 16.8276 15.4134 17.2181 15.8039L22.7071 21.2929C23.0976 21.6834 23.0976 22.3166 22.7071 22.7071C22.3166 23.0976 21.6834 23.0976 21.2929 22.7071L15.8039 17.2181C15.4134 16.8276 15.4134 16.1944 15.8039 15.8039Z" fill="black"/>
</svg>
