<svg width="24" height="24" viewBox="0 0 24 24" fill="none" xmlns="http://www.w3.org/2000/svg">
<path fill-rule="evenodd" clip-rule="evenodd" d="M9 11C11.2091 11 13 9.20914 13 7C13 4.79086 11.2091 3 9 3C6.79086 3 5 4.79086 5 7C5 9.20914 6.79086 11 9 11ZM9 9C10.1046 9 11 8.10457 11 7C11 5.89543 10.1046 5 9 5C7.89543 5 7 5.89543 7 7C7 8.10457 7.89543 9 9 9Z" fill="white"/>
<path d="M12 14C12.5523 14 13 14.4477 13 15V21H15V15C15 13.3431 13.6569 12 12 12H6C4.34315 12 3 13.3431 3 15V21H5V15C5 14.4477 5.44772 14 6 14H12Z" fill="white"/>
<path fill-rule="evenodd" clip-rule="evenodd" d="M15 11C17.2091 11 19 9.20914 19 7C19 4.79086 17.2091 3 15 3V5C16.1046 5 17 5.89543 17 7C17 8.10457 16.1046 9 15 9V11ZM18 14C18.5523 14 19 14.4477 19 15V21H21V15C21 13.3431 19.6569 12 18 12H17V14H18Z" fill="white"/>
<circle cx="15" cy="4" r="1" fill="white"/>
<circle cx="15" cy="10" r="1" fill="white"/>
<circle cx="17" cy="13" r="1" fill="white"/>
</svg>
